<svg xmlns="http://www.w3.org/2000/svg" viewBox="0 0 1024 1024" width="1024" height="1024">
  <defs>
    <!-- Refined background gradient: deep indigo → softer blue, less saturated -->
    <linearGradient id="bg" x1="0" y1="0" x2="0" y2="1">
      <stop offset="0%" stop-color="#5B8EE8"/>
      <stop offset="100%" stop-color="#1F3FA8"/>
    </linearGradient>

    <!-- Card surface gradient -->
    <linearGradient id="card" x1="0" y1="0" x2="0" y2="1">
      <stop offset="0%" stop-color="#FFFFFF"/>
      <stop offset="100%" stop-color="#EAEFF7"/>
    </linearGradient>

    <!-- Subtle top sheen -->
    <linearGradient id="sheen" x1="0" y1="0" x2="0" y2="1">
      <stop offset="0%" stop-color="white" stop-opacity="0.18"/>
      <stop offset="55%" stop-color="white" stop-opacity="0"/>
    </linearGradient>

    <filter id="cardShadow" x="-30%" y="-30%" width="160%" height="160%">
      <feDropShadow dx="0" dy="20" stdDeviation="22" flood-opacity="0.28"/>
    </filter>

    <filter id="tagShadow" x="-30%" y="-30%" width="160%" height="160%">
      <feDropShadow dx="0" dy="6" stdDeviation="6" flood-opacity="0.22"/>
    </filter>
  </defs>

  <!-- Rounded background -->
  <rect x="100" y="100" width="824" height="824" rx="185" ry="185" fill="url(#bg)"/>

  <!-- Top sheen -->
  <rect x="100" y="100" width="824" height="824" rx="185" ry="185" fill="url(#sheen)"/>

  <!-- White rounded "card" representing a file. Tilted slightly for depth. -->
  <g transform="translate(512 540) rotate(-6)" filter="url(#cardShadow)">
    <rect x="-260" y="-330" width="520" height="660" rx="56" fill="url(#card)"/>

    <!-- Three list rows on the card, each a thin gray pill with a colored leading dot.
         Represents a list of tagged files — the core FileLens metaphor. -->
    <g transform="translate(0 -130)">
      <circle cx="-160" cy="0" r="20" fill="#3B82F6"/>
      <rect x="-120" y="-14" width="280" height="28" rx="14" fill="#D7DDE5"/>
    </g>
    <g transform="translate(0 -30)">
      <circle cx="-160" cy="0" r="20" fill="#10B981"/>
      <rect x="-120" y="-14" width="220" height="28" rx="14" fill="#D7DDE5"/>
    </g>
    <g transform="translate(0 70)">
      <circle cx="-160" cy="0" r="20" fill="#F59E0B"/>
      <rect x="-120" y="-14" width="260" height="28" rx="14" fill="#D7DDE5"/>
    </g>
    <g transform="translate(0 170)">
      <circle cx="-160" cy="0" r="20" fill="#A855F7"/>
      <rect x="-120" y="-14" width="200" height="28" rx="14" fill="#D7DDE5"/>
    </g>
  </g>

  <!-- A single bold accent tag clipped over the upper-right corner of the card,
       pointing inward — the "lens" / signifier that this is about TAGS. -->
  <g transform="translate(720 280) rotate(35)" filter="url(#tagShadow)">
    <path d="M -150 -64
             L 64 -64
             A 22 22 0 0 1 84 -52
             L 154 0
             L 84 52
             A 22 22 0 0 1 64 64
             L -150 64
             A 28 28 0 0 1 -178 36
             L -178 -36
             A 28 28 0 0 1 -150 -64 Z"
          fill="#3B82F6"/>
    <circle cx="56" cy="0" r="14" fill="white"/>
  </g>
</svg>
