<svg xmlns="http://www.w3.org/2000/svg" viewBox="0 0 1024 1024" width="1024" height="1024">
  <defs>
    <linearGradient id="bg" x1="0" y1="0" x2="0" y2="1">
      <stop offset="0%" stop-color="#5B8EE8"/>
      <stop offset="100%" stop-color="#1F3FA8"/>
    </linearGradient>
    <linearGradient id="card" x1="0" y1="0" x2="0" y2="1">
      <stop offset="0%" stop-color="#FFFFFF"/>
      <stop offset="100%" stop-color="#EAEFF7"/>
    </linearGradient>
    <linearGradient id="sheen" x1="0" y1="0" x2="0" y2="1">
      <stop offset="0%" stop-color="white" stop-opacity="0.18"/>
      <stop offset="55%" stop-color="white" stop-opacity="0"/>
    </linearGradient>
    <filter id="cardShadow" x="-30%" y="-30%" width="160%" height="160%">
      <feDropShadow dx="0" dy="20" stdDeviation="22" flood-opacity="0.28"/>
    </filter>
    <filter id="tagShadow" x="-30%" y="-30%" width="160%" height="160%">
      <feDropShadow dx="0" dy="8" stdDeviation="10" flood-opacity="0.25"/>
    </filter>
  </defs>

  <!-- Rounded background -->
  <rect x="100" y="100" width="824" height="824" rx="185" ry="185" fill="url(#bg)"/>
  <rect x="100" y="100" width="824" height="824" rx="185" ry="185" fill="url(#sheen)"/>

  <!-- Small white file/card centered, holding a list of tagged rows.
       Smaller than before to leave more breathing room around the icon. -->
  <g transform="translate(490 540) rotate(-6)" filter="url(#cardShadow)">
    <rect x="-180" y="-220" width="360" height="440" rx="44" fill="url(#card)"/>

    <!-- Four list rows: colored leading dot + neutral pill -->
    <g transform="translate(0 -120)">
      <circle cx="-110" cy="0" r="14" fill="#3B82F6"/>
      <rect x="-80" y="-9" width="190" height="18" rx="9" fill="#D7DDE5"/>
    </g>
    <g transform="translate(0 -50)">
      <circle cx="-110" cy="0" r="14" fill="#10B981"/>
      <rect x="-80" y="-9" width="150" height="18" rx="9" fill="#D7DDE5"/>
    </g>
    <g transform="translate(0 20)">
      <circle cx="-110" cy="0" r="14" fill="#F59E0B"/>
      <rect x="-80" y="-9" width="170" height="18" rx="9" fill="#D7DDE5"/>
    </g>
    <g transform="translate(0 90)">
      <circle cx="-110" cy="0" r="14" fill="#A855F7"/>
      <rect x="-80" y="-9" width="130" height="18" rx="9" fill="#D7DDE5"/>
    </g>
    <g transform="translate(0 160)">
      <circle cx="-110" cy="0" r="14" fill="#EC4899"/>
      <rect x="-80" y="-9" width="160" height="18" rx="9" fill="#D7DDE5"/>
    </g>
  </g>

  <!-- Bold blue tag clipping into upper-right, brand mark for tagging -->
  <g transform="translate(710 320) rotate(35)" filter="url(#tagShadow)">
    <path d="M -150 -64
             L 64 -64
             A 22 22 0 0 1 84 -52
             L 154 0
             L 84 52
             A 22 22 0 0 1 64 64
             L -150 64
             A 28 28 0 0 1 -178 36
             L -178 -36
             A 28 28 0 0 1 -150 -64 Z"
          fill="#3B82F6"/>
    <circle cx="56" cy="0" r="14" fill="white"/>
  </g>
</svg>
